<svg xmlns="http://www.w3.org/2000/svg" version="1.1" xmlns:xlink="http://www.w3.org/1999/xlink" xmlns:svgjs="http://svgjs.dev/svgjs" width="100%" height="100%" viewBox="0 0 1000 600"><rect width="1000" height="600" x="0" y="0" fill="#2f3c7e"/><g><circle r="166.66666666666666" cx="320.9880167643229" cy="343.21021051832656" fill="#fbeaeb" transform="matrix(0.8099983111851617,0,0,0.8099983111851617,0,22.00031802506041)"/><path d="M317.3913750927606 418.2101992033263Q298.8009668900769 418.2101992033263 273.0172851617316 414.6291322966117L273.0172851617316 414.6291322966117L273.0172851617316 396.4746800651802Q299.018944875703 402.07982826699435 318.7303827187495 402.07982826699435L318.7303827187495 402.07982826699435Q335.327849338566 402.07982826699435 342.95707883547976 398.37420251135063Q350.5863083323935 394.6685767557067 350.5863083323935 384.57930999244115L350.5863083323935 384.57930999244115L350.5863083323935 365.7397840918991Q350.5863083323935 356.33559099774413 345.1991381162054 352.50540639317114Q339.81196790001735 348.70636150083044 326.35961221566333 348.70636150083044L326.35961221566333 348.70636150083044L309.32618962459463 348.70636150083044Q288.02662645770073 348.70636150083044 279.05838933479805 340.1740803491799Q270.0901522118953 331.6729389097618 270.0901522118953 313.7364646639563L270.0901522118953 313.7364646639563L270.0901522118953 302.0590725768435Q270.0901522118953 290.1948422163367 275.3527635791542 282.7835907050491Q280.6153749464131 275.4034789059938 293.0712598393335 271.79127228704687Q305.5271447322539 268.21020538033224 327.26266387040005 268.21020538033224L327.26266387040005 268.21020538033224Q341.8360491951169 268.21020538033224 364.6925979736259 270.670242646684L364.6925979736259 270.670242646684L364.6925979736259 287.04973128087437Q339.158033943139 283.2506863885336 325.705678258785 283.2506863885336L325.705678258785 283.2506863885336Q304.8420710631433 283.2506863885336 298.11589322096626 287.26770926650045L298.11589322096626 287.26770926650045Q291.17173739316314 291.5338498423257 291.17173739316314 301.4051386199651L291.17173739316314 301.4051386199651L291.17173739316314 318.0026052397816Q291.17173739316314 325.600695024463 296.6523267460481 329.0883427944808Q302.1640558111654 332.5759905644985 315.61641149551946 332.5759905644985L315.61641149551946 332.5759905644985L333.0857900578403 332.5759905644985Q348.12627106604174 332.5759905644985 356.533993368763 336.1570574712131Q364.9417156714843 339.73812437792776 368.3982237292697 347.02481704028617Q371.8858714992874 354.31150970264457 371.8858714992874 366.6428357466358L371.8858714992874 366.6428357466358L371.8858714992874 377.1680584811536Q371.8858714992874 392.64449546060723 366.156164448544 401.6127325835099Q360.45759711003296 410.5809697064126 348.56222703729395 414.4111543109856Q336.66685696455494 418.2101992033263 317.3913750927606 418.2101992033263L317.3913750927606 418.2101992033263Z " fill="#2f3c7e" transform="matrix(0.8099983111851617,0,0,0.8099983111851617,0,22.00031802506041)"/><path d="M570.9880137895577 383.841897147782L570.9880137895577 276.63021962399057L643.0054449359693 276.63021962399057L643.0054449359693 287.8721888058134L587.0020841750929 287.8721888058134L587.0020841750929 322.88289282920425L637.5450599047982 322.88289282920425L637.5450599047982 334.12486201102706L587.0020841750929 334.12486201102706L587.0020841750929 372.5999279659592L644.6573261218698 372.5999279659592L644.6573261218698 383.841897147782L570.9880137895577 383.841897147782ZM659.5242567949741 342.5448675002698L659.5242567949741 330.6605000794857L705.4557308807072 330.6605000794857L705.4557308807072 342.5448675002698L659.5242567949741 342.5448675002698ZM756.8246472033626 385.4937783336825Q743.104856242689 385.4937783336825 724.1082226048335 382.85535699509137L724.1082226048335 382.85535699509137L724.1082226048335 369.47970794814717Q743.2654558024294 373.6094109128984 757.8111873560532 373.6094109128984L757.8111873560532 373.6094109128984Q770.0396966905665 373.6094109128984 775.6606812814779 370.8792183973129Q781.2587230781406 368.1490258817273 781.2587230781406 360.7155605451752L781.2587230781406 360.7155605451752L781.2587230781406 346.8351700247614Q781.2587230781406 339.9064461616788 777.3125624673784 337.0844824690987Q773.3434590623675 334.2854615707673 763.4321719469646 334.2854615707673L763.4321719469646 334.2854615707673L750.8824634929705 334.2854615707673Q735.1895922269159 334.2854615707673 728.582067483314 327.9991359466461Q721.974542739712 321.73575311677337 721.974542739712 308.5207036295694L721.974542739712 308.5207036295694L721.974542739712 299.91715578633773Q721.974542739712 291.17595117761437 725.8518749677283 285.7155661464433Q729.7292071957448 280.27812390952084 738.906324895192 277.6167597766812Q748.0604998003905 274.9783384380901 764.0975129801744 274.9783384380901L764.0975129801744 274.9783384380901Q774.8347406885276 274.9783384380901 791.6747516670132 276.79081918373095L791.6747516670132 276.79081918373095L791.6747516670132 288.85872895850395Q772.8387175888979 286.0597080601725 762.927430473495 286.0597080601725L762.927430473495 286.0597080601725Q747.5787011211696 286.0597080601725 742.6230575634681 289.01932851824427L742.6230575634681 289.01932851824427Q737.4838716517777 292.1624913303049 737.4838716517777 299.43535710711683L737.4838716517777 299.43535710711683L737.4838716517777 311.66386644163015Q737.4838716517777 317.2619082382929 741.544746233783 319.8315011941381Q745.5826780215399 322.40109414998324 755.4939651369427 322.40109414998324L755.4939651369427 322.40109414998324L768.387815504666 322.40109414998324Q779.4462423324998 322.40109414998324 785.6407967796266 325.03951548857435Q791.8353512267535 327.67793682716535 794.4049441825987 333.04655068134196Q796.9515943441953 338.41516453551856 796.9515943441953 347.50051105797127L796.9515943441953 347.50051105797127L796.9515943441953 355.2551755140041Q796.9515943441953 366.6577442555672 792.7530629966982 373.26526899916917Q788.5315888549525 379.87279374277114 779.7903842462291 382.6947574353511Q771.026236843257 385.4937783336825 756.8246472033626 385.4937783336825L756.8246472033626 385.4937783336825ZM818.9307912343712 383.841897147782L818.9307912343712 268.21021413474784L833.7977219074756 268.21021413474784L833.7977219074756 313.6369467470113Q836.114944126586 302.2343780054482 860.0672213221432 302.2343780054482L860.0672213221432 302.2343780054482Q875.4159506744685 302.2343780054482 881.6105051215953 307.76359141936507Q887.8050595687221 313.31574762753064 887.8050595687221 325.2001150483146L887.8050595687221 325.2001150483146L887.8050595687221 383.841897147782L872.9381288956178 383.841897147782L872.9381288956178 326.18665520100524Q872.9381288956178 323.0434923889446 872.4563302163966 321.0704120835635Q871.9515887429271 319.09733177818237 870.460307116767 317.1013086785525L870.460307116767 317.1013086785525Q867.156544744966 312.9716057138013 855.7769187976515 312.9716057138013L855.7769187976515 312.9716057138013Q846.6915722751988 312.9716057138013 841.9653566599835 314.21051660322667Q837.2620838390169 315.44942749265203 835.5413742703705 318.2713911852321Q833.7977219074756 321.0704120835635 833.7977219074756 326.18665520100524L833.7977219074756 326.18665520100524L833.7977219074756 383.841897147782L818.9307912343712 383.841897147782ZM947.4563246151286 385.4937783336825Q936.8796964665158 385.4937783336825 931.579910995085 384.7596089177267Q926.3030683179029 384.00249670752237 921.0262256407208 381.52467492867163L921.0262256407208 381.52467492867163Q915.5658406095498 379.0468531498209 913.0880188306991 373.5176397359039Q910.6101970518483 367.98842632198705 910.6101970518483 358.5589378858051L910.6101970518483 358.5589378858051L910.6101970518483 330.8210996392261Q910.6101970518483 323.38763430267386 912.4226777974891 317.7666497117625Q914.2351585431298 312.14566512085105 917.2177217954503 309.00250230879044L917.2177217954503 309.00250230879044Q919.6955435743009 306.20348141045906 924.7429583089969 304.64337140155305Q929.7674302494443 303.06031859839845 935.067215720875 302.57851991917744L935.067215720875 302.57851991917744Q941.0093994312671 302.2343780054482 947.4563246151286 302.2343780054482L947.4563246151286 302.2343780054482Q956.0369296641117 302.2343780054482 960.4190033655976 302.64734830192333Q964.8010770670837 303.06031859839845 969.7567206247852 304.3910006648182L969.7567206247852 304.3910006648182Q974.872963742227 305.8822822909784 977.6719846405584 308.8419027490502Q980.4939483331383 311.8244660013704 982.4670286385195 317.4454505922819L982.4670286385195 317.4454505922819Q984.2795093841603 323.2270347429335 984.2795093841603 330.8210996392261L984.2795093841603 330.8210996392261L984.2795093841603 358.5589378858051Q984.2795093841603 372.5999279659592 977.8325842002986 379.0468531498209L977.8325842002986 379.0468531498209Q975.1941628617076 381.6852744884119 970.2385193040061 383.1765561145721Q965.2828757463047 384.66783774073224 960.0060330691226 385.17257921420185L960.0060330691226 385.17257921420185Q953.7197074450013 385.4937783336825 947.4563246151286 385.4937783336825L947.4563246151286 385.4937783336825ZM947.4563246151286 375.7430907780199Q954.3850484782112 375.7430907780199 957.5282112902718 375.42189165853927Q960.6713741023325 375.0777497448099 963.6309945604042 373.6094109128984L963.6309945604042 373.6094109128984Q966.6135578127245 372.27872884647854 967.8524687021498 369.2273372114124Q969.0913795915752 366.1759455763462 969.0913795915752 360.7155605451752L969.0913795915752 360.7155605451752L969.0913795915752 328.34327786037534Q969.0913795915752 320.9098125238231 967.2788988459345 317.51427897502765Q965.443475306045 314.1416882204809 961.0843443988077 313.0633768907958Q956.7022706973215 311.9850655611108 947.4563246151286 311.9850655611108L947.4563246151286 311.9850655611108Q938.187435738687 311.9850655611108 933.8283048314496 313.0633768907958Q929.4462311299636 314.1416882204809 927.6337503843228 317.51427897502765Q925.7983268444333 320.9098125238231 925.7983268444333 328.34327786037534L925.7983268444333 328.34327786037534L925.7983268444333 360.7155605451752Q925.7983268444333 366.1759455763462 927.0372377338587 369.2273372114124Q928.276148623284 372.27872884647854 931.2587118756044 373.6094109128984L931.2587118756044 373.6094109128984Q934.2412751279247 375.0777497448099 937.3614951457367 375.42189165853927Q940.5046579577973 375.7430907780199 947.4563246151286 375.7430907780199L947.4563246151286 375.7430907780199ZM1007.4058459867671 418.2102029322116L1007.4058459867671 303.8862591913487L1022.1121771001311 303.8862591913487L1022.1121771001311 312.4898070345804L1022.2727766598715 312.4898070345804Q1024.0852574055125 302.2343780054482 1049.5288162272295 302.2343780054482L1049.5288162272295 302.2343780054482Q1064.7398888140633 302.2343780054482 1072.4945532700958 308.5895320123153Q1080.249217726129 314.96762881343113 1080.249217726129 324.878915928834L1080.249217726129 324.878915928834L1080.249217726129 357.73299729285486Q1080.249217726129 364.84526350992644 1078.1843662437532 370.12210618710844Q1076.1195147613776 375.42189165853927 1072.8157523895766 378.3815121166109L1072.8157523895766 378.3815121166109Q1069.856131931505 381.203475809191 1064.6481176370687 382.85535699509137Q1059.4401033426325 384.50723818099186 1054.3238602251909 384.9890368602129L1054.3238602251909 384.9890368602129Q1049.6894157869697 385.4937783336825 1043.0818910433677 385.4937783336825L1043.0818910433677 385.4937783336825Q1035.8319680608047 385.4937783336825 1029.7980131734182 383.7501259707875Q1023.7640582860316 382.02941640214124 1022.2727766598715 378.72565403034025L1022.2727766598715 378.72565403034025L1022.2727766598715 418.2102029322116L1007.4058459867671 418.2102029322116ZM1043.426032957097 375.42189165853927Q1052.0066380060803 375.42189165853927 1056.5493112673066 374.1829807691139Q1061.091984528533 372.9440698796885 1063.0880076281628 369.64030750788754Q1065.061087933544 366.33654513608656 1065.061087933544 359.5684208327443L1065.061087933544 359.5684208327443L1065.061087933544 330.1557586060161Q1065.061087933544 322.722293269464 1063.0880076281628 319.09733177818237Q1061.091984528533 315.44942749265203 1056.5493112673066 314.21051660322667Q1052.0066380060803 312.9716057138013 1043.265433397357 312.9716057138013L1043.265433397357 312.9716057138013Q1034.501285994385 312.9716057138013 1030.2109834698933 314.21051660322667Q1025.9206809454017 315.44942749265203 1024.0852574055125 319.0055606011879Q1022.2727766598715 322.5616937097236 1022.2727766598715 330.1557586060161L1022.2727766598715 330.1557586060161L1022.2727766598715 359.5684208327443Q1022.2727766598715 366.33654513608656 1024.1770285825069 369.64030750788754Q1026.081280505142 372.9440698796885 1030.5321825893739 374.1829807691139Q1035.0060274678544 375.42189165853927 1043.426032957097 375.42189165853927L1043.426032957097 375.42189165853927Z " fill="#fbeaeb" transform="matrix(0.8099983111851617,0,0,0.8099983111851617,0,22.00031802506041)"/></g></svg>